<svg xmlns="http://www.w3.org/2000/svg" width="237" height="79" viewBox="0 0 237 79" fill="none">
  <path d="M80.0317 39.3829C80.0317 47.1719 77.7283 54.7861 73.4127 61.2625C69.0971 67.7389 62.9632 72.7867 55.7867 75.7676C48.6101 78.7485 40.7131 79.5286 33.0944 78.0093C25.4757 76.4899 18.4773 72.7394 12.9843 67.2319C7.49136 61.7244 3.75042 54.7074 2.23458 47.0681C0.718741 39.4287 1.49608 31.5103 4.4683 24.3139C7.44053 17.1176 12.4741 10.9666 18.9326 6.63878C25.3911 2.31094 32.9844 0.000636493 40.7524 1.31448e-07C45.9105 -0.000422426 51.0181 1.01793 55.7837 2.99692C60.5492 4.9759 64.8794 7.87676 68.5269 11.5338C72.1743 15.1909 75.0677 19.5326 77.0417 24.311C79.0157 29.0893 80.0317 34.2108 80.0317 39.3829Z" fill="#915022"/>
  <path d="M38.9425 76.0984C60.2442 76.0984 77.5126 59.5983 77.5126 39.2445C77.5126 18.8907 60.2442 2.39062 38.9425 2.39062C17.6408 2.39062 0.372314 18.8907 0.372314 39.2445C0.372314 59.5983 17.6408 76.0984 38.9425 76.0984Z" fill="#F7F6F5"/>
  <path d="M7.75586 54.3315C7.75586 54.3315 7.75586 60.0137 17.5107 66.2365C24.891 70.947 34.7036 69.9849 41.1052 68.019C50.8633 65.0235 64.1414 62.6232 66.3908 64.4797C68.6402 66.3362 60.355 54.0967 44.6125 59.0099C44.6125 59.0099 40.7619 60.2969 31.9825 62.1888C22.6769 64.1901 19.9302 63.7976 15.5694 61.8992C10.3422 59.6341 7.75586 54.3315 7.75586 54.3315Z" fill="url(#paint0_linear_628_627)"/>
  <path d="M36.8375 0.119141C36.8375 0.119141 34.5625 9.65276 18.3771 22.3428C12.168 27.211 3.71918 38.1603 3.43359 53.6593C3.43359 53.6593 -6.41431 34.621 7.24568 15.9302C7.24568 15.9302 12.1744 10.0003 16.9299 6.81487C25.8826 0.820568 36.8375 0.119141 36.8375 0.119141Z" fill="#78B043"/>
  <path d="M36.8375 0.119141C36.8375 0.119141 37.9574 7.1495 29.7235 13.7262C16.2721 24.4535 8.7442 31.6737 5.62842 40.9403C5.62842 40.9403 4.80696 23.1054 10.3165 15.6857C10.3165 15.6857 13.9618 9.51118 18.3867 6.47059C26.7169 0.746564 36.8375 0.119141 36.8375 0.119141Z" fill="url(#paint1_linear_628_627)"/>
  <path d="M22.8983 70.5576C22.8983 70.5576 26.6719 72.2596 36.3754 70.5286C46.2458 68.7686 44.4552 67.9932 53.2474 66.1527C59.0233 64.9397 61.0321 64.5439 65.441 65.5768C65.441 65.5768 63.2911 70.7731 48.938 73.4437C41.0731 74.9077 30.3171 74.4733 22.8983 70.5576Z" fill="url(#paint2_linear_628_627)"/>
  <path d="M5.99426 56.4585C5.99426 56.4585 15.4956 72.9967 30.8852 71.285C40.7138 70.191 40.1106 69.9304 47.8535 67.5945C53.9149 65.7637 61.9723 63.772 68.4349 66.6292C68.4349 66.6292 59.033 76.0824 44.5516 77.9099C33.9496 79.2677 12.5146 74.0038 5.99426 56.4585Z" fill="#915022"/>
  <path d="M61.0386 55.6028L50.6067 55.384V17.0597L60.8653 13.6909L61.0386 55.6028Z" fill="url(#paint3_linear_628_627)"/>
  <path d="M45.2605 55.3837H39.5713V23.4334L45.2605 20.1226V55.3837Z" fill="#567635"/>
  <path d="M33.4779 55.3839H27.7854V29.7046L33.4779 26.6479V55.3839Z" fill="#567635"/>
  <path d="M22.0321 55.3837H16.9974V34.0867L22.0321 31.5513V55.3837Z" fill="#567635"/>
  <path d="M45.9346 22.6546L40.547 25.1547L16.3331 36.3904L16.6187 37.1851L41.2337 25.4957L53.2539 19.7202L45.9346 22.6546Z" fill="#F9F9FA"/>
  <path d="M46.3742 25.7533L40.9865 28.2533L16.7727 39.489L17.0583 40.2837L41.6732 28.5944L53.6935 22.8188L46.3742 25.7533Z" fill="#F9F9FA"/>
  <path d="M48.2257 28.0796L42.5011 30.7341L16.7727 42.6744L17.0583 43.4692L43.2167 31.0623L55.991 24.936L48.2257 28.0796Z" fill="#F9F9FA"/>
  <path d="M48.1005 31.1524L42.3984 33.8004L16.7727 45.6925L17.0583 46.484L43.114 34.1286L55.837 28.0249L48.1005 31.1524Z" fill="#F9F9FA"/>
  <path d="M49.0728 34.669L43.1942 37.3943L16.7727 49.6564L17.0583 50.4511L43.9258 37.716L57.0467 31.4321L49.0728 34.669Z" fill="#F9F9FA"/>
  <path d="M48.0203 39.3541L42.331 41.9925L16.7727 53.8557L17.0583 54.6504L43.0466 42.3239L55.7375 36.2363L48.0203 39.3541Z" fill="#F9F9FA"/>
  <path d="M50.8762 42.3171L46.3196 44.431L25.8376 53.9357L26.1264 54.7304L46.9325 44.8074L57.0884 39.8975L50.8762 42.3171Z" fill="#F9F9FA"/>
  <path d="M52.1467 46.5L49.2395 47.8482L36.1667 53.9133L36.4555 54.708L49.7048 48.2954L56.1642 45.0972L52.1467 46.5Z" fill="#F9F9FA"/>
  <path d="M54.0015 51.169L52.5928 51.8222L46.2522 54.7662L46.5025 55.4644L52.8977 52.263L56.007 50.6445L54.0015 51.169Z" fill="#F9F9FA"/>
  <path d="M87.1103 16.6736L88.6537 16.6382L94.144 38.5819V16.6382H95.5719V45.5962H94.3686L88.5639 22.5231V45.5994H87.0974L87.1103 16.6736Z" fill="#5B4B1F" stroke="#5B4B1F" stroke-miterlimit="10"/>
  <path d="M104.287 45.5958L104.249 16.5605H105.753V45.5958H104.287Z" fill="#5B4B1F" stroke="#5B4B1F" stroke-miterlimit="10"/>
  <path d="M114.918 45.596V16.5801H119.561C120.5 16.5801 121.212 16.8407 121.695 17.3619C122.178 17.8832 122.568 18.8045 122.863 20.1258C123.168 21.563 123.315 23.0292 123.303 24.4985C123.345 26.2608 123.1 28.0182 122.577 29.7013C122.094 31.1106 121.351 32.0029 120.347 32.3783C120.686 32.8229 120.965 33.3109 121.175 33.8294C121.644 35.0892 122.028 36.3791 122.324 37.6905L124.182 45.596H122.433L121.04 39.5438C120.63 37.7956 120.292 36.4603 120.026 35.5379C119.86 34.8712 119.623 34.2241 119.32 33.6074C119.164 33.3069 118.945 33.0436 118.679 32.8352C118.436 32.7299 118.172 32.6846 117.909 32.7032H116.304V45.5992L114.918 45.596ZM116.311 31.5675H118.878C119.733 31.4173 120.323 31.0537 120.646 30.4767C121.034 29.7279 121.313 28.9272 121.474 28.0989C121.729 26.876 121.883 25.6342 121.936 24.3859C121.981 22.7466 121.798 21.1091 121.39 19.5209C121.022 18.3047 120.134 17.6204 118.727 17.4681H116.301L116.311 31.5675Z" fill="#5B4B1F" stroke="#5B4B1F" stroke-miterlimit="10"/>
  <path d="M137.142 22.4425L134.02 45.6089H132.416L136.796 16.6123H138.432L143.153 45.6089H141.404L137.537 19.4856L137.142 22.4425Z" fill="#5B4B1F" stroke="#5B4B1F" stroke-miterlimit="10"/>
  <path d="M151.656 16.6736L153.199 16.6382L158.69 38.5819V16.6382H160.121V45.5962H158.918L153.122 22.5231V45.5994H151.656V16.6736Z" fill="#5B4B1F" stroke="#5B4B1F" stroke-miterlimit="10"/>
  <path d="M168.804 16.6382H177.304V17.996H173.617V45.5962H172.263V17.996H168.804V16.6382Z" fill="#5B4B1F" stroke="#5B4B1F" stroke-miterlimit="10"/>
  <path d="M191.028 22.4425L187.906 45.6089H186.302L190.682 16.6123H192.318L197.038 45.6089H195.29L191.423 19.4856L191.028 22.4425Z" fill="#5B4B1F" stroke="#5B4B1F" stroke-miterlimit="10"/>
  <path d="M205.522 45.596V16.5801H210.178C211.119 16.5801 211.828 16.8407 212.312 17.3619C212.797 17.8832 213.182 18.8066 213.477 20.1258C213.785 21.5626 213.933 23.029 213.92 24.4985C213.963 26.2608 213.718 28.0182 213.195 29.7013C212.713 31.1106 211.971 32.0029 210.968 32.3783C211.305 32.8244 211.583 33.3121 211.796 33.8294C212.265 35.0888 212.647 36.3788 212.941 37.6905L214.783 45.6089H213.034L211.645 39.5566C211.232 37.8084 210.893 36.4732 210.628 35.5508C210.46 34.8848 210.225 34.2378 209.925 33.6203C209.768 33.3199 209.55 33.0566 209.283 32.848C209.041 32.7427 208.777 32.6975 208.513 32.7161H206.909V45.6121L205.522 45.596ZM206.915 31.5675H209.482C210.338 31.4173 210.927 31.0537 211.25 30.4767C211.636 29.7271 211.913 28.9266 212.075 28.0989C212.33 26.8763 212.482 25.6342 212.527 24.3859C212.573 22.7466 212.389 21.1091 211.982 19.5209C211.635 18.3047 210.755 17.6204 209.341 17.4681H206.915V31.5675Z" fill="#5B4B1F" stroke="#5B4B1F" stroke-miterlimit="10"/>
  <path d="M227.747 22.4422L224.628 45.6086H223.023L227.41 16.5991H229.046L233.763 45.5957H232.015L228.148 19.4853L227.747 22.4422Z" fill="#5B4B1F" stroke="#5B4B1F" stroke-miterlimit="10"/>
  <path d="M87.4313 16.6736L88.9747 16.6382L94.4651 38.5819V16.6382H95.893V45.5962H94.6897L88.8849 22.5231V45.5994H87.4185L87.4313 16.6736Z" fill="#5B4B1F" stroke="#5B4B1F" stroke-miterlimit="10"/>
  <path d="M104.608 45.5958L104.57 16.5605H106.075V45.5958H104.608Z" fill="#5B4B1F" stroke="#5B4B1F" stroke-miterlimit="10"/>
  <path d="M115.239 45.596V16.5801H119.882C120.821 16.5801 121.533 16.8407 122.016 17.3619C122.5 17.8832 122.889 18.8045 123.184 20.1258C123.489 21.563 123.636 23.0292 123.624 24.4985C123.666 26.2608 123.421 28.0182 122.898 29.7013C122.415 31.1106 121.672 32.0029 120.668 32.3783C121.007 32.8229 121.286 33.3109 121.496 33.8294C121.965 35.0892 122.349 36.3791 122.645 37.6905L124.503 45.596H122.754L121.361 39.5438C120.951 37.7956 120.613 36.4603 120.347 35.5379C120.181 34.8712 119.944 34.2241 119.642 33.6074C119.485 33.3069 119.266 33.0436 119 32.8352C118.757 32.7299 118.493 32.6846 118.23 32.7032H116.625V45.5992L115.239 45.596ZM116.632 31.5675H119.199C120.054 31.4173 120.644 31.0537 120.967 30.4767C121.355 29.7279 121.634 28.9272 121.795 28.0989C122.05 26.876 122.205 25.6342 122.257 24.3859C122.302 22.7466 122.119 21.1091 121.711 19.5209C121.343 18.3047 120.456 17.6204 119.048 17.4681H116.622L116.632 31.5675Z" fill="#5B4B1F" stroke="#5B4B1F" stroke-miterlimit="10"/>
  <path d="M137.463 22.4425L134.341 45.6089H132.737L137.117 16.6123H138.753L143.474 45.6089H141.725L137.858 19.4856L137.463 22.4425Z" fill="#5B4B1F" stroke="#5B4B1F" stroke-miterlimit="10"/>
  <path d="M151.977 16.6736L153.52 16.6382L159.011 38.5819V16.6382H160.442V45.5962H159.238L153.443 22.5231V45.5994H151.977V16.6736Z" fill="#5B4B1F" stroke="#5B4B1F" stroke-miterlimit="10"/>
  <path d="M169.125 16.6382H177.625V17.996H173.938V45.5962H172.584V17.996H169.125V16.6382Z" fill="#5B4B1F" stroke="#5B4B1F" stroke-miterlimit="10"/>
  <path d="M191.349 22.4425L188.227 45.6089H186.623L191.003 16.6123H192.639L197.359 45.6089H195.61L191.744 19.4856L191.349 22.4425Z" fill="#5B4B1F" stroke="#5B4B1F" stroke-miterlimit="10"/>
  <path d="M205.844 45.596V16.5801H210.5C211.44 16.5801 212.149 16.8407 212.633 17.3619C213.118 17.8832 213.503 18.8066 213.798 20.1258C214.106 21.5626 214.254 23.029 214.241 24.4985C214.284 26.2608 214.039 28.0182 213.516 29.7013C213.035 31.1106 212.292 32.0029 211.289 32.3783C211.626 32.8244 211.904 33.3121 212.117 33.8294C212.586 35.0888 212.968 36.3788 213.262 37.6905L215.104 45.6089H213.355L211.966 39.5566C211.553 37.8084 211.214 36.4732 210.949 35.5508C210.781 34.8848 210.546 34.2378 210.246 33.6203C210.09 33.3199 209.871 33.0566 209.604 32.848C209.362 32.7427 209.098 32.6975 208.834 32.7161H207.23V45.6121L205.844 45.596ZM207.236 31.5675H209.803C210.659 31.4173 211.248 31.0537 211.571 30.4767C211.957 29.7271 212.234 28.9266 212.396 28.0989C212.651 26.8763 212.803 25.6342 212.848 24.3859C212.894 22.7466 212.71 21.1091 212.303 19.5209C211.956 18.3047 211.076 17.6204 209.662 17.4681H207.236V31.5675Z" fill="#5B4B1F" stroke="#5B4B1F" stroke-miterlimit="10"/>
  <path d="M228.068 22.4422L224.949 45.6086H223.344L227.731 16.5991H229.367L234.084 45.5957H232.335L228.469 19.4853L228.068 22.4422Z" fill="#5B4B1F" stroke="#5B4B1F" stroke-miterlimit="10"/>
  <path d="M89.7319 51.6126V52.6229H87.7617V56.1204H89.7319V57.1307H87.7617V60.8952H89.8474V61.9056H86.5808V51.6094L89.7319 51.6126Z" fill="#597736" stroke="#597736" stroke-miterlimit="10"/>
  <path d="M96.6052 54.1099H95.4757C95.4715 53.6948 95.3854 53.2847 95.2222 52.9033C95.1382 52.7355 95.0073 52.596 94.8454 52.5017C94.6836 52.4074 94.4978 52.3625 94.3109 52.3724C93.7226 52.3724 93.2947 52.7542 93.0273 53.5179C92.7599 54.2815 92.623 55.4859 92.6166 57.1312C92.6166 58.5308 92.7514 59.5475 93.0241 60.1878C93.1364 60.4605 93.3178 60.699 93.5504 60.8796C93.7609 61.0456 94.0207 61.1362 94.2884 61.137C94.9976 61.137 95.3987 60.4613 95.4821 59.1067H96.6116C96.5474 61.1081 95.7345 62.1087 94.1729 62.1087C93.7769 62.1362 93.3808 62.0564 93.0263 61.8775C92.6717 61.6986 92.3717 61.4272 92.1578 61.092C91.9217 60.7288 91.7542 60.3253 91.6636 59.9015C91.4693 58.9324 91.3758 57.9458 91.3844 56.9574C91.3692 56.0852 91.4282 55.2133 91.5609 54.3512C91.6641 53.732 91.8656 53.1335 92.1578 52.5783C92.3553 52.2193 92.6501 51.9237 93.0081 51.7257C93.3933 51.5072 93.8299 51.3961 94.2724 51.4039C94.5903 51.3869 94.908 51.4414 95.2022 51.5633C95.4965 51.6852 95.7598 51.8715 95.973 52.1086C96.4101 52.6813 96.6337 53.3893 96.6052 54.1099Z" fill="#597736" stroke="#597736" stroke-miterlimit="10"/>
  <path d="M100.995 51.4068C101.477 51.408 101.946 51.5648 102.333 51.854C102.824 52.2112 103.196 52.8193 103.446 53.7234C103.698 54.7168 103.817 55.7393 103.799 56.764C103.799 58.7782 103.464 60.2583 102.792 61.2043C102.589 61.4863 102.318 61.713 102.006 61.8639C101.622 62.0537 101.195 62.1354 100.768 62.1002C100.342 62.0651 99.9336 61.9144 99.5862 61.6644C99.1006 61.3126 98.7327 60.6894 98.4824 59.795C98.2259 58.8177 98.1039 57.8098 98.1198 56.7994C98.1198 54.7423 98.4535 53.2472 99.1209 52.3142C99.33 52.0284 99.6068 51.7995 99.9264 51.6481C100.259 51.4866 100.625 51.4041 100.995 51.4068ZM100.934 52.3721C100.424 52.3721 100.032 52.7485 99.7595 53.495C99.4483 54.5499 99.3117 55.6488 99.3552 56.7479C99.3552 58.2709 99.5231 59.4271 99.859 60.2165C100.109 60.8149 100.477 61.1142 100.963 61.1142C101.448 61.1142 101.815 60.8149 102.063 60.2165C102.397 59.4249 102.565 58.2859 102.567 56.7994C102.567 53.8586 102.023 52.3882 100.934 52.3882V52.3721Z" fill="#597736" stroke="#597736" stroke-miterlimit="10"/>
  <path d="M110.159 51.6128L108.009 61.909H106.947L104.797 51.6128H106.039L107.323 58.1734C107.422 58.7697 107.488 59.3713 107.518 59.9752C107.547 59.3714 107.61 58.7698 107.708 58.1734L108.991 51.6128H110.159Z" fill="#597736" stroke="#597736" stroke-miterlimit="10"/>
  <path d="M114.876 51.6126V52.6229H112.906V56.1204H114.876V57.1307H112.906V60.8952H115.005V61.9056H111.729V51.6094L114.876 51.6126Z" fill="#597736" stroke="#597736" stroke-miterlimit="10"/>
  <path d="M121.759 51.6126V61.9088H120.524L118.329 55.3031C118.284 55.1423 118.177 54.7132 118.008 54.0161C118.031 54.4022 118.047 54.8269 118.063 55.3031V61.9056H116.882V51.6094H118.165L120.412 58.4628C120.45 58.5979 120.489 58.7524 120.524 58.9229C120.559 59.0934 120.585 59.2704 120.636 59.4827C120.607 59.206 120.588 58.8971 120.585 58.5625V51.6126H121.759Z" fill="#597736" stroke="#597736" stroke-miterlimit="10"/>
  <path d="M128.267 51.6128V52.6231H126.569V61.9057H125.388V52.6231H123.425V51.6128H128.267Z" fill="#597736" stroke="#597736" stroke-miterlimit="10"/>
  <path d="M134.524 51.6128V58.257C134.524 59.1161 134.508 59.7307 134.473 60.1007C134.456 60.4068 134.389 60.7081 134.274 60.992C133.953 61.7384 133.272 62.1085 132.246 62.1085C131.105 62.1085 130.393 61.6709 130.109 60.7957C129.993 60.4353 129.935 59.5891 129.935 58.257V51.6128H131.116V58.257C131.116 59.129 131.132 59.6889 131.151 59.927C131.161 60.1325 131.205 60.335 131.283 60.5254C131.371 60.7125 131.513 60.8692 131.69 60.9755C131.867 61.0819 132.072 61.1331 132.278 61.1228C132.484 61.1124 132.682 61.041 132.848 60.9175C133.014 60.7939 133.139 60.6239 133.208 60.4289C133.32 59.7107 133.363 58.9834 133.337 58.257V51.6128H134.524Z" fill="#597736" stroke="#597736" stroke-miterlimit="10"/>
  <path d="M137.98 57.1468V61.9056H136.799V51.6094H138.349C139.087 51.6094 139.591 51.7156 139.86 51.9311C140.132 52.1468 140.328 52.443 140.422 52.7773C140.55 53.2654 140.607 53.7692 140.592 54.2735C140.624 54.8553 140.53 55.4372 140.316 55.9788C140.221 56.1674 140.088 56.3343 139.925 56.4693C139.763 56.6043 139.575 56.7046 139.373 56.7639C139.653 56.8408 139.892 57.0243 140.04 57.2755C140.155 57.4798 140.248 57.6955 140.319 57.919C140.39 58.1442 140.476 58.511 140.576 59.0194L140.833 60.3064C140.946 60.8573 141.111 61.396 141.327 61.9152H140.133C140.022 61.6587 139.931 61.3941 139.86 61.1237L139.539 59.6983C139.366 58.8231 139.244 58.2729 139.18 58.0477C139.124 57.8359 139.029 57.6363 138.901 57.4589C138.841 57.3677 138.759 57.2926 138.664 57.2399C138.568 57.1872 138.461 57.1586 138.352 57.1564L137.98 57.1468ZM137.98 56.159H138.349C138.51 56.1687 138.671 56.1293 138.809 56.0461C138.948 55.9628 139.058 55.8396 139.125 55.6925C139.311 55.1965 139.389 54.6669 139.357 54.1384C139.393 53.7171 139.324 53.2933 139.154 52.906C139.058 52.7884 138.934 52.6972 138.793 52.6409C138.652 52.5846 138.499 52.5651 138.349 52.5843H137.98V56.159Z" fill="#597736" stroke="#597736" stroke-miterlimit="10"/>
  <path d="M146.053 51.6126V52.6229H144.077V56.1204H146.047V57.1307H144.077V60.8952H146.175V61.9056H142.902V51.6094L146.053 51.6126Z" fill="#597736" stroke="#597736" stroke-miterlimit="10"/>
  <path d="M151.662 54.0547H150.533C150.553 53.6203 150.502 53.1855 150.382 52.7677C150.353 52.661 150.289 52.567 150.201 52.5006C150.113 52.4342 150.005 52.3991 149.894 52.4009C149.787 52.3971 149.681 52.4257 149.59 52.4831C149.499 52.5404 149.427 52.6239 149.384 52.7227C149.259 53.0395 149.205 53.3801 149.227 53.7201C149.207 54.1818 149.272 54.6433 149.419 55.0811C149.638 55.5157 149.929 55.9096 150.279 56.2459C150.679 56.6265 151.025 57.0595 151.309 57.5329C151.586 58.1848 151.712 58.8909 151.678 59.5986C151.678 60.4899 151.528 61.1237 151.232 61.5002C151.061 61.7048 150.84 61.862 150.591 61.9571C150.311 62.0699 150.013 62.1268 149.711 62.1244C149.279 62.1572 148.851 62.0259 148.511 61.7565C148.171 61.487 147.944 61.0992 147.876 60.67C147.782 60.1673 147.739 59.6563 147.748 59.1449H148.89C148.871 59.679 148.934 60.2128 149.076 60.728C149.117 60.8542 149.199 60.9634 149.307 61.0389C149.416 61.1144 149.547 61.1521 149.679 61.1462C149.803 61.1548 149.926 61.1274 150.034 61.0675C150.142 61.0075 150.231 60.9176 150.289 60.8084C150.431 60.4297 150.49 60.0248 150.462 59.6211C150.481 59.152 150.426 58.683 150.299 58.2311C150.15 57.8541 149.924 57.513 149.634 57.2305C149.076 56.6417 148.746 56.2813 148.636 56.1494C148.511 55.9887 148.404 55.8151 148.316 55.6313C148.084 55.113 147.974 54.5483 147.995 53.9807C147.995 52.2647 148.604 51.4121 149.824 51.4228C150.169 51.4021 150.512 51.494 150.801 51.6848C151.091 51.8755 151.31 52.155 151.428 52.4814C151.598 52.988 151.677 53.5206 151.662 54.0547Z" fill="#597736" stroke="#597736" stroke-miterlimit="10"/>
  <path d="M158.494 57.8871V61.9059H157.313V51.6097H158.998C159.26 51.5959 159.523 51.6342 159.771 51.7226C160.019 51.8109 160.247 51.9475 160.442 52.1245C160.717 52.4067 160.912 52.7578 161.006 53.1412C161.139 53.6875 161.2 54.249 161.186 54.8112C161.186 55.8837 161.011 56.6655 160.66 57.1568C160.47 57.4095 160.219 57.6104 159.932 57.7408C159.644 57.8712 159.328 57.9271 159.014 57.9032L158.494 57.8871ZM158.494 56.8543H158.86C159.007 56.8723 159.156 56.8521 159.293 56.7958C159.43 56.7395 159.55 56.6488 159.643 56.5325C159.839 56.2301 159.938 55.6574 159.938 54.8144C159.974 54.2381 159.89 53.6605 159.691 53.1187C159.618 52.9621 159.5 52.8313 159.351 52.7435C159.203 52.6556 159.032 52.6148 158.86 52.6264H158.494V56.8543Z" fill="#597736" stroke="#597736" stroke-miterlimit="10"/>
  <path d="M164.167 57.1468V61.9056H162.986V51.6094H164.536C165.274 51.6094 165.778 51.7156 166.048 51.9311C166.32 52.1459 166.517 52.4424 166.609 52.7773C166.737 53.2654 166.794 53.7692 166.779 54.2735C166.812 54.8553 166.717 55.4372 166.503 55.9788C166.408 56.1674 166.275 56.3343 166.113 56.4693C165.95 56.6043 165.762 56.7046 165.56 56.7639C165.836 56.8429 166.071 57.0248 166.218 57.2723C166.33 57.4773 166.423 57.6928 166.494 57.9158C166.564 58.141 166.651 58.5078 166.75 59.0162L167.007 60.3032C167.122 60.8536 167.287 61.3922 167.501 61.912H166.307C166.197 61.6555 166.106 61.3909 166.035 61.1205L165.714 59.6951C165.536 58.8199 165.415 58.2697 165.351 58.0445C165.295 57.8327 165.2 57.6331 165.072 57.4557C165.012 57.3639 164.931 57.2883 164.835 57.2356C164.74 57.1828 164.633 57.1545 164.523 57.1532L164.167 57.1468ZM164.167 56.159H164.536C164.697 56.1687 164.858 56.1293 164.996 56.0461C165.135 55.9628 165.245 55.8396 165.313 55.6925C165.498 55.1965 165.577 54.6669 165.544 54.1384C165.581 53.7171 165.511 53.2933 165.342 52.906C165.246 52.7884 165.121 52.6972 164.98 52.6409C164.839 52.5846 164.687 52.5651 164.536 52.5843H164.167V56.159Z" fill="#597736" stroke="#597736" stroke-miterlimit="10"/>
  <path d="M170.363 51.6128V61.909H169.183V51.6128H170.363Z" fill="#597736" stroke="#597736" stroke-miterlimit="10"/>
  <path d="M177.391 51.6128L175.241 61.909H174.179L172.029 51.6128H173.277L174.561 58.1734C174.657 58.7702 174.722 59.3716 174.756 59.9752C174.784 59.3715 174.846 58.7699 174.942 58.1734L176.245 51.6128H177.391Z" fill="#597736" stroke="#597736" stroke-miterlimit="10"/>
  <path d="M180.978 51.5454L183.176 61.9059H182.047L181.354 58.5597H179.624L178.902 61.9156H177.824L180.035 51.5551L180.978 51.5454ZM181.129 57.5687L180.654 55.1555C180.559 54.6344 180.497 54.1078 180.468 53.5789C180.442 53.8524 180.426 54.0294 180.423 54.1162C180.396 54.4648 180.351 54.8117 180.288 55.1555L179.813 57.5687H181.129Z" fill="#597736" stroke="#597736" stroke-miterlimit="10"/>
  <path d="M188.297 51.6128V52.6231H186.6V61.9057H185.419V52.6231H183.455V51.6128H188.297Z" fill="#597736" stroke="#597736" stroke-miterlimit="10"/>
  <path d="M193.117 51.6126V52.6229H191.147V56.1204H193.117V57.1307H191.147V60.8952H193.246V61.9056H189.963V51.6094L193.117 51.6126Z" fill="#597736" stroke="#597736" stroke-miterlimit="10"/>
  <path d="M199.971 51.6126V60.8952H202.047V61.9056H198.791V51.6094L199.971 51.6126Z" fill="#597736" stroke="#597736" stroke-miterlimit="10"/>
  <path d="M204.993 51.6128V61.909H203.812V51.6128H204.993Z" fill="#597736" stroke="#597736" stroke-miterlimit="10"/>
  <path d="M213.66 51.6126L214.18 61.9088H212.999L212.787 56.3746C212.787 56.2716 212.787 56.1333 212.759 55.9595C212.736 55.7375 212.726 55.5895 212.726 55.5123C212.726 55.435 212.726 55.2903 212.749 54.9942C212.749 54.8623 212.749 54.6918 212.749 54.4794V54.103C212.638 54.8988 212.5 55.656 212.335 56.3746L211.238 61.9088H210.002L208.808 56.1461C208.764 55.937 208.715 55.6764 208.671 55.3707C208.606 54.9042 208.545 54.4794 208.484 54.103C208.484 54.6049 208.484 54.9782 208.484 55.2195C208.484 55.4608 208.484 55.76 208.436 56.1461L208.253 61.9056H207.073L207.583 51.6094H208.937L210.374 58.289C210.437 58.5737 210.484 58.8615 210.516 59.1513C210.561 59.5471 210.599 59.8849 210.628 60.1616C210.673 59.5322 210.761 58.9065 210.891 58.289L212.322 51.6094L213.66 51.6126Z" fill="#597736" stroke="#597736" stroke-miterlimit="10"/>
  <path d="M217.434 51.6128V61.909H216.253V51.6128H217.434Z" fill="#597736" stroke="#597736" stroke-miterlimit="10"/>
  <path d="M224.047 51.6128V52.6231H222.349V61.9057H221.169V52.6231H219.205V51.6128H224.047Z" fill="#597736" stroke="#597736" stroke-miterlimit="10"/>
  <path d="M228.867 51.6126V52.6229H226.897V56.1204H228.867V57.1307H226.897V60.8952H228.995V61.9056H225.716V51.6094L228.867 51.6126Z" fill="#597736" stroke="#597736" stroke-miterlimit="10"/>
  <path d="M230.872 61.9056V51.6094H232.939C233.809 51.6094 234.462 51.8174 234.896 52.2336C235.632 52.9479 236 54.4237 236 56.6609C236 59.0376 235.626 60.6035 234.88 61.3586C234.525 61.7211 233.878 61.9023 232.939 61.9023L230.872 61.9056ZM232.053 60.9242H232.81C233.133 60.9436 233.453 60.8608 233.726 60.6875C233.999 60.5143 234.211 60.2594 234.331 59.9589C234.624 59.3026 234.77 58.1614 234.768 56.5355C234.768 55.1069 234.62 54.0944 234.325 53.4981C234.191 53.2139 233.975 52.9766 233.705 52.8171C233.435 52.6576 233.123 52.5832 232.81 52.6036H232.053V60.9242Z" fill="#597736" stroke="#597736" stroke-miterlimit="10"/>
  <defs>
    <linearGradient id="paint0_linear_628_627" x1="10.4962" y1="64.7082" x2="53.6121" y2="56.3766" gradientUnits="userSpaceOnUse">
      <stop stop-color="#769AA6"/>
      <stop offset="1" stop-color="#51BAEA"/>
    </linearGradient>
    <linearGradient id="paint1_linear_628_627" x1="10.2267" y1="23.3435" x2="23.2055" y2="19.5785" gradientUnits="userSpaceOnUse">
      <stop offset="0.04" stop-color="#4A632D"/>
      <stop offset="1" stop-color="#668D3D"/>
    </linearGradient>
    <linearGradient id="paint2_linear_628_627" x1="49.1658" y1="60.4577" x2="40.9296" y2="72.9792" gradientUnits="userSpaceOnUse">
      <stop stop-color="#B76E33"/>
      <stop offset="1" stop-color="#5B4A1F"/>
    </linearGradient>
    <linearGradient id="paint3_linear_628_627" x1="50.6067" y1="34.6469" x2="61.0386" y2="34.6469" gradientUnits="userSpaceOnUse">
      <stop offset="0.05" stop-color="#7DB041"/>
      <stop offset="0.99" stop-color="#54803A"/>
    </linearGradient>
  </defs>
</svg>